<?xml version="1.0" encoding="UTF-8" standalone="no"?>
<svg
   version="1.1"
   viewBox="0.0 0.0 1280.0 720.0"
   fill="none"
   stroke="none"
   stroke-linecap="square"
   stroke-miterlimit="10"
   id="svg3537"
   sodipodi:docname="dark_icon.svg"
   xml:space="preserve"
   inkscape:version="1.2.2 (b0a8486541, 2022-12-01)"
   inkscape:export-filename="icon.png"
   inkscape:export-xdpi="96"
   inkscape:export-ydpi="96"
   xmlns:inkscape="http://www.inkscape.org/namespaces/inkscape"
   xmlns:sodipodi="http://sodipodi.sourceforge.net/DTD/sodipodi-0.dtd"
   xmlns:xlink="http://www.w3.org/1999/xlink"
   xmlns="http://www.w3.org/2000/svg"
   xmlns:svg="http://www.w3.org/2000/svg"><defs
     id="defs3541"><linearGradient
       inkscape:collect="always"
       id="linearGradient6068"><stop
         style="stop-color:#997f00;stop-opacity:1;"
         offset="0.36108476"
         id="stop6064" /><stop
         style="stop-color:#d6ae00;stop-opacity:1;"
         offset="0.6435703"
         id="stop6074" /><stop
         style="stop-color:#ba9500;stop-opacity:1;"
         offset="0.78875047"
         id="stop6066" /><stop
         style="stop-color:#ffd105;stop-opacity:1;"
         offset="0.91663337"
         id="stop6072" /></linearGradient><linearGradient
       inkscape:collect="always"
       id="linearGradient2958"><stop
         style="stop-color:#c9a100;stop-opacity:1;"
         offset="0.83925718"
         id="stop2954" /><stop
         style="stop-color:#c9a100;stop-opacity:0;"
         offset="1"
         id="stop2956" /></linearGradient><radialGradient
       inkscape:collect="always"
       xlink:href="#linearGradient2958"
       id="radialGradient2960"
       cx="371.20001"
       cy="366.25049"
       fx="371.20001"
       fy="366.25049"
       r="263.33336"
       gradientTransform="translate(0,2.1222298e-5)"
       gradientUnits="userSpaceOnUse" /><linearGradient
       inkscape:collect="always"
       xlink:href="#linearGradient6068"
       id="linearGradient6070"
       x1="512.17012"
       y1="363.47771"
       x2="731.82354"
       y2="363.47771"
       gradientUnits="userSpaceOnUse" /></defs><sodipodi:namedview
     id="namedview3539"
     pagecolor="#000000"
     bordercolor="#000000"
     borderopacity="0.25"
     inkscape:showpageshadow="2"
     inkscape:pageopacity="0"
     inkscape:pagecheckerboard="0"
     inkscape:deskcolor="#d1d1d1"
     showgrid="false"
     showguides="true"
     inkscape:zoom="0.68"
     inkscape:cx="709.55882"
     inkscape:cy="294.11765"
     inkscape:window-width="1400"
     inkscape:window-height="775"
     inkscape:window-x="26"
     inkscape:window-y="23"
     inkscape:window-maximized="0"
     inkscape:current-layer="layer2"><sodipodi:guide
       position="620.54099,477.63086"
       orientation="1,0"
       id="guide13720"
       inkscape:locked="false" /><sodipodi:guide
       position="620.01282,607.08286"
       orientation="1,0"
       id="guide1099"
       inkscape:locked="false" /><sodipodi:guide
       position="621.45508,678.8457"
       orientation="1,0"
       id="guide397"
       inkscape:locked="false" /><sodipodi:guide
       position="712.64062,588.20507"
       orientation="1,0"
       id="guide455"
       inkscape:locked="false" /><sodipodi:guide
       position="712.64062,588.20507"
       orientation="0,-1"
       id="guide457"
       inkscape:locked="false" /><sodipodi:guide
       position="621.45508,678.8457"
       orientation="0,-1"
       id="guide1320"
       inkscape:locked="false" /><sodipodi:guide
       position="639.36303,608.95703"
       orientation="0,-1"
       id="guide414"
       inkscape:locked="false" /></sodipodi:namedview><clipPath
     id="p4.0"><path
       d="m0 0l1280.0 0l0 720.0l-1280.0 0l0 -720.0z"
       clip-rule="nonzero"
       id="path3472" /></clipPath><g
     inkscape:groupmode="layer"
     id="layer3"
     inkscape:label="background"
     style="display:inline;fill:none;fill-opacity:1;stroke:#c9a100;stroke-opacity:1"><ellipse
       style="display:inline;fill:none;fill-opacity:1;stroke:url(#radialGradient2960);stroke-width:40;stroke-dasharray:none;stroke-opacity:1"
       id="path15226"
       cx="371.20001"
       cy="366.25049"
       rx="253.33336"
       ry="253.33334"
       transform="translate(248.81281)" /><path
       stroke="#2f5496"
       stroke-width="13.3333"
       stroke-miterlimit="800"
       stroke-linecap="butt"
       d="m 520.5333,271.46667 v 192"
       fill-rule="evenodd"
       id="path3487"
       sodipodi:nodetypes="cc"
       style="display:inline;fill:none;fill-opacity:1;stroke:#c9a100;stroke-opacity:1"
       transform="translate(248.81281)" /><path
       stroke="#2f5496"
       stroke-width="13.3333"
       stroke-miterlimit="800"
       stroke-linecap="butt"
       d="m 218.66667,271.46667 v 192"
       fill-rule="evenodd"
       id="path3483"
       style="display:inline;fill:none;fill-opacity:1;stroke:#c9a100;stroke-opacity:1"
       transform="translate(248.81281)" /></g><g
     inkscape:groupmode="layer"
     id="layer1"
     inkscape:label="newspear"
     style="display:inline;stroke:#c2cb00;stroke-opacity:1"><g
       id="g1035"
       transform="translate(0.54293911,-2.5732638)"
       style="stroke:#c2cb00;stroke-opacity:1" /><path
       id="path1322"
       style="display:inline;fill:url(#linearGradient6070);fill-opacity:1;stroke:#c5c5c5;stroke-width:2;stroke-dasharray:none;stroke-opacity:1"
       d="m 621.9978,38.580066 -17.36524,72.462904 2.03711,112.22657 -36.94336,-12.16993 -25.18945,-71.47461 -27.45117,-20.80859 c 13.72557,18.61282 28.73183,68.5123 28.0957,110.57422 0,0 3.5997,0.41262 9.18945,1.85742 13.65597,3.5297 39.19118,13.22251 53.13672,38.11914 l 7.66602,422.2168 6.82422,-0.55078 6.82422,0.55078 7.66601,-422.2168 c 19.65383,-35.08748 62.32422,-39.97656 62.32422,-39.97656 -0.63613,-42.06192 14.3701,-91.9614 28.0957,-110.57422 l -27.45117,20.80859 -25.18945,71.47461 -36.94141,12.16993 2.03711,-112.22657 z" /><g
       id="g6034"><path
         style="fill:#d2ab00;fill-opacity:1;stroke:#fdfeff;stroke-width:2;stroke-dasharray:none;stroke-opacity:1"
         d="M 659.17982,231.32295 Z"
         id="path5073" /><path
         style="fill:none;fill-opacity:1;stroke:#fdfeff;stroke-width:2;stroke-dasharray:none;stroke-opacity:1"
         d="m 635.13931,254.74398 c 16.69907,-17.30539 38.25899,-29.17817 56.57557,-32.60307 -1.87594,-15.47662 7.72387,-57.58365 14.06449,-70.55017"
         id="path5075"
         sodipodi:nodetypes="ccc" /><path
         style="fill:none;fill-opacity:1;stroke:#fdfeff;stroke-width:2;stroke-dasharray:none;stroke-opacity:1"
         d="m 631.07142,224.01284 1.43256,-109.44727 -8.3387,-63.279954"
         id="path5180"
         sodipodi:nodetypes="ccc" /><path
         style="fill:none;fill-opacity:1;stroke:#fdfeff;stroke-width:2;stroke-dasharray:none;stroke-opacity:0.632084"
         d="M 563.39403,208.9574 542.4999,140.31571"
         id="path5238"
         sodipodi:nodetypes="cc" /></g></g><g
     inkscape:groupmode="layer"
     id="layer2"
     inkscape:label="belt"
     style="display:inline"><path
       fill="#000000"
       d="m 626.71618,332.95949 -32.89236,-26.57535 c -29.1659,74.81098 -31.85398,118.94479 17.53506,203.79077 3.09238,5.76251 -15.53833,-139.56195 15.3573,-177.21542 z"
       fill-rule="evenodd"
       id="path3506"
       style="display:inline;stroke:#c0c0c0;stroke-width:3;stroke-dasharray:none;stroke-opacity:1"
       inkscape:label="mid_belt" /><g
       stroke="#1a1a1a"
       stroke-width="4"
       id="g15715"
       transform="matrix(-0.03291479,-0.62226956,0.70991584,-0.02885113,574.6767,470.44045)"
       style="overflow:visible;fill:#000000;fill-opacity:1;stroke:#c0c0c0;stroke-opacity:1"
       inkscape:label="knot"><path
         fill="#ffffff"
         d="m 192.044,46.054 c 0,0 -1.475,4.952 0.21,7.375 1.686,2.423 24.86,1.791 24.86,1.791 L 205.845,45 Z"
         id="path15697"
         style="fill:#000000;fill-opacity:1;stroke:#c0c0c0;stroke-opacity:1" /><path
         fill="#ffffff"
         d="m 252.014,126.336 c 0,0 -22.156,-6.112 -28.268,-21.392 -6.111,-15.279 58.827,-29.795 58.827,-29.795 l -6.112,31.324 z"
         id="path15701"
         style="fill:#000000;fill-opacity:1;stroke:#c0c0c0;stroke-opacity:1" /><path
         fill="#ffffff"
         d="m 195.479,102.652 c 0,0 30.56,21.392 35.143,19.1 4.584,-2.292 58.827,-36.671 58.827,-36.671 l -45.839,-33.616 -50.423,38.2 z"
         id="path15703"
         style="fill:#000000;fill-opacity:1;stroke:#c0c0c0;stroke-opacity:1" /><path
         fill="#ffffff"
         d="m 22.818,152.312 c 0,0 125.293,-76.398 200.928,-106.958 75.635,-30.56 30.56,29.031 30.56,29.031 0,0 -78.69,38.199 -110.778,57.299 -32.088,19.1 -81.746,50.424 -87.858,51.188 -6.112,0.763 -32.852,-30.56 -32.852,-30.56 z"
         id="path15705"
         style="fill:#000000;fill-opacity:1;stroke:#c0c0c0;stroke-opacity:1" /><path
         fill="#ffffff"
         d="m 255.967,27.303 c 0,0 -5.29,-1.851 -14.146,8.46 -8.857,10.312 15.07,8.197 15.07,8.197 z"
         id="path15707"
         style="fill:#000000;fill-opacity:1;stroke:#c0c0c0;stroke-opacity:1" /><path
         fill="#ffffff"
         d="m 232.15,28.546 c 0,0 40.00646,4.347312 50.2085,19.056794 8.57121,12.358117 13.08202,37.332594 0.2145,45.118206 -28.85052,17.45628 -89.387,-47.367 -89.387,-47.367 z"
         id="path15709"
         sodipodi:nodetypes="caacc"
         style="fill:#000000;fill-opacity:1;stroke:#c0c0c0;stroke-opacity:1" /><path
         fill="#ffffff"
         d="m 255.834,27.782 c 0,0 -2.292,92.442 -4.584,97.026 -2.293,4.584 42.783,-12.987 43.546,-18.335 0.765,-5.349 6.877,-50.423 2.293,-55.007 C 292.505,46.882 260.417,25.49 255.834,27.782 Z M 52.833,134.34 c 0,0 12.771958,15.25507 24.4552,25.30103 3.169273,2.72514 6.258432,5.06696 8.9908,6.61697 4.013,-1.912 87.34,-50.839 87.34,-50.839 0,0 -25.801,-22.933 -29.623,-32.107 -7.453,4.205 -91.163,51.028 -91.163,51.028 z"
         id="path15711"
         style="fill:#000000;fill-opacity:1;stroke:#c0c0c0;stroke-opacity:1"
         sodipodi:nodetypes="cccsccscccc" /><path
         d="m 62.006,129.18 c 0,0 6.60527,7.88978 14.660747,16.05758 6.184567,6.2708 13.223937,12.70547 18.785253,15.85942 4.013,-1.911 68.995,-40.707 68.995,-40.707 0,0 -25.801,-22.933 -29.624,-32.108 -7.452,4.205 -72.817,40.898 -72.817,40.898 z"
         id="path15713"
         style="fill:#c0c0c0;fill-opacity:1;stroke:#9e9e9e;stroke-opacity:0"
         sodipodi:nodetypes="cscccc" /></g><path
       stroke="#c5c5c5"
       stroke-width="4"
       stroke-miterlimit="800"
       stroke-linecap="butt"
       d="m 635.65289,540.78339 -1.81113,-51.82782 c 19.60389,32.69305 36.38907,85.83453 38.57425,135.12372 l -16.08624,21.95502 c -0.59625,-13.66736 -8.11859,-78.38416 -20.67688,-105.25092 z"
       fill-rule="evenodd"
       id="path3491"
       style="display:inline;fill:#000000;fill-opacity:1"
       inkscape:label="low_belt" /></g></svg>
