<?xml version="1.0" encoding="UTF-8" standalone="no"?>
<!-- Created with Inkscape (http://www.inkscape.org/) -->

<svg
   width="200mm"
   height="200mm"
   viewBox="0 0 200 200"
   version="1.1"
   id="svg282"
   inkscape:version="1.2.2 (b0a8486541, 2022-12-01)"
   sodipodi:docname="UCSD_Center_ring.svg"
   xml:space="preserve"
   inkscape:export-filename="UCSD_Center_ring.png"
   inkscape:export-xdpi="96"
   inkscape:export-ydpi="96"
   xmlns:inkscape="http://www.inkscape.org/namespaces/inkscape"
   xmlns:sodipodi="http://sodipodi.sourceforge.net/DTD/sodipodi-0.dtd"
   xmlns="http://www.w3.org/2000/svg"
   xmlns:svg="http://www.w3.org/2000/svg"><sodipodi:namedview
     id="namedview284"
     pagecolor="#ffffff"
     bordercolor="#000000"
     borderopacity="0.25"
     inkscape:showpageshadow="2"
     inkscape:pageopacity="0.0"
     inkscape:pagecheckerboard="0"
     inkscape:deskcolor="#d1d1d1"
     inkscape:document-units="mm"
     showgrid="false"
     showguides="true"
     inkscape:zoom="0.34296751"
     inkscape:cx="424.23844"
     inkscape:cy="626.88154"
     inkscape:window-width="1536"
     inkscape:window-height="779"
     inkscape:window-x="0"
     inkscape:window-y="0"
     inkscape:window-maximized="1"
     inkscape:current-layer="layer3"><sodipodi:guide
       position="99.999999,99.999999"
       orientation="-1,0"
       id="guide2221"
       inkscape:locked="false"
       inkscape:label=""
       inkscape:color="rgb(0,134,229)" /><sodipodi:guide
       position="66.666666,99.999999"
       orientation="-1,0"
       id="guide5131"
       inkscape:locked="false"
       inkscape:label=""
       inkscape:color="rgb(0,134,229)" /><sodipodi:guide
       position="133.3941,175"
       orientation="-1,0"
       id="guide7313"
       inkscape:locked="false"
       inkscape:label=""
       inkscape:color="rgb(0,134,229)" /><sodipodi:guide
       position="99.999999,150"
       orientation="0,1"
       id="guide10279"
       inkscape:locked="false"
       inkscape:label=""
       inkscape:color="rgb(0,134,229)" /><sodipodi:guide
       position="99.999999,50"
       orientation="0,1"
       id="guide12459"
       inkscape:locked="false"
       inkscape:label=""
       inkscape:color="rgb(0,134,229)" /><inkscape:grid
       type="xygrid"
       id="grid13300" /><sodipodi:guide
       position="99.999999,250"
       orientation="0.96592583,0.25881905"
       id="guide15265"
       inkscape:locked="false"
       inkscape:label=""
       inkscape:color="rgb(0,134,229)" /><sodipodi:guide
       position="99.999999,99.999999"
       orientation="0.96592583,-0.25881905"
       id="guide18173"
       inkscape:locked="false"
       inkscape:label=""
       inkscape:color="rgb(0,134,229)" /><sodipodi:guide
       position="120.09619,175"
       orientation="1,0"
       id="guide20353"
       inkscape:locked="false" /><sodipodi:guide
       position="99.999999,250"
       orientation="0.8660254,0.5"
       id="guide21807"
       inkscape:locked="false"
       inkscape:label=""
       inkscape:color="rgb(0,134,229)" /><sodipodi:guide
       position="125,215.192"
       orientation="1,0"
       id="guide26165"
       inkscape:locked="false" /><sodipodi:guide
       position="120.09619,175"
       orientation="0,-1"
       id="guide27619"
       inkscape:locked="false" /><sodipodi:guide
       position="99.999999,99.999999"
       orientation="0,-1"
       id="guide31016"
       inkscape:locked="false" /><sodipodi:guide
       position="87.499999,99.287634"
       orientation="-1,0"
       id="guide1469"
       inkscape:locked="false"
       inkscape:label=""
       inkscape:color="rgb(0,134,229)" /></sodipodi:namedview><defs
     id="defs279" /><g
     inkscape:label="mat_center"
     inkscape:groupmode="layer"
     id="layer1"
     style="display:inline"><circle
       style="display:inline;fill:#000000;fill-opacity:0;stroke:#110068;stroke-width:10;stroke-dasharray:none;stroke-opacity:1"
       id="path1706"
       cx="100"
       cy="100"
       r="92.677818" /><path
       style="display:inline;fill:#000000;fill-opacity:0;stroke:#110066;stroke-width:10;stroke-dasharray:none;stroke-opacity:1"
       d="M 66.666665,150 V 49.999999"
       id="path10275" /><path
       style="display:inline;fill:#000000;fill-opacity:0;stroke:#110066;stroke-width:10;stroke-dasharray:none;stroke-opacity:1"
       d="M 133.64134,149.99141 133.14686,50.008586"
       id="path10277" /></g><g
     inkscape:groupmode="layer"
     id="layer5"
     inkscape:label="belt_under"
     sodipodi:insensitive="true"><path
       id="path2805"
       style="overflow:visible;fill:#ffffff;stroke:#1a1a1a;stroke-width:0.680475;stroke-opacity:1"
       d="m 112.83322,238.9192 c -0.88163,-6.29757 -5.95529,-17.70921 -12.63097,-26.73185 C 85.902602,192.86038 86.312773,177.44814 86.312773,177.44814 l -0.38028,13.40663 c 0,0 -1.838038,14.35712 13.793894,34.17489 6.665613,8.45049 12.951313,25.91101 12.951313,25.91101 0,0 0.74574,-7.80546 0.15552,-12.02147 z"
       sodipodi:nodetypes="ssccscs"
       inkscape:label="belt_path" /></g><g
     inkscape:groupmode="layer"
     id="layer3"
     inkscape:label="spear"
     sodipodi:insensitive="true"><path
       style="fill:#e5c31a;fill-opacity:1;stroke:#000000;stroke-width:2.3;stroke-dasharray:none;stroke-opacity:1"
       d="m 106.6985,49.999998 -6.6985,-100 -6.6985,100.000003 z"
       id="path15263"
       sodipodi:nodetypes="cccc"
       inkscape:label="main_spear"
       transform="matrix(-1,0,0,1,200,-3.0000001e-6)" /><path
       style="fill:#e5c31a;fill-opacity:1;stroke:#000000;stroke-width:2.5;stroke-dasharray:none;stroke-opacity:1"
       d="m 100,250.00001 c 0,0 -7.92811,-150 -6.6985,-200.000015 l 13.397,1e-5 C 107.92811,100.00001 100,250.00001 100,250.00001"
       id="path31000"
       sodipodi:nodetypes="cccc"
       inkscape:label="wood" /><path
       id="path18171"
       style="fill:#e5c31a;fill-opacity:1;stroke:#000000;stroke-width:2.3;stroke-dasharray:none;stroke-opacity:1"
       d="m 120.09635,-15.192351 4.90358,8.4935381 V 6.6988189 c 0,3.5020981 8.39432,18.3012081 8.39432,18.3012081 -8.3941,0 -14.10165,19.607269 -19.99723,25.000025 H 99.999902 86.602787 C 80.707203,44.607296 75.000167,25.000027 66.606075,25.000027 c 0,0 8.393803,-14.79911 8.393803,-18.3012081 V -6.6988129 l 4.904093,-8.4935381 v 40.192378 l 6.698816,9.78545 13.397115,0.214457 13.397118,-0.214457 6.69933,-9.78545 z"
       transform="matrix(-1,0,0,1,200,-3.0000001e-6)" /></g><g
     inkscape:groupmode="layer"
     id="layer4"
     inkscape:label="BJJ Belt"
     sodipodi:insensitive="true"><g
       stroke="#1a1a1a"
       stroke-width="4"
       id="g1560"
       style="overflow:visible"
       transform="matrix(0.1591788,0,0,0.20421519,62.363567,48.507589)"><path
         id="path1540"
         style="fill:#ffffff;stroke-width:5.86997;fill-opacity:1"
         d="M 146.96647,654.89565 C 155.12312,604.24441 202.06379,512.46097 263.82604,439.89209 396.12398,284.4458 392.32915,160.48549 392.32915,160.48549 l 3.51829,107.82917 c 0,0 17.00521,142.51785 -127.61881,301.91165 -61.66909,67.96707 -119.82332,181.35763 -119.82332,181.35763 0,0 -6.89944,-62.77902 -1.43884,-96.68829 z"
         sodipodi:nodetypes="ssccscs"
         inkscape:label="path1540" /><path
         fill="#ffffff"
         d="m 192.044,46.054 c 0,0 -1.475,4.952 0.21,7.375 1.686,2.423 24.86,1.791 24.86,1.791 L 205.845,45 Z"
         id="path1542"
         style="overflow:visible;fill:#ffffff;fill-opacity:1" /><path
         fill="#ffffff"
         d="m 178.03617,39.390532 c 0,0 104.56116,13.168008 130.50987,-4.058914 20.71682,26.771083 -9.72014,66.529742 -9.72014,66.529742 l -115.56495,2.24704 c 0,0 -29.22866,-38.106353 -5.22478,-64.718138 z"
         id="path1544"
         sodipodi:nodetypes="cccccc"
         style="overflow:visible;fill:#ffffff;fill-opacity:1" /><path
         fill="#ffffff"
         d="m 252.014,126.336 c 0,0 -22.156,-6.112 -28.268,-21.392 -6.111,-15.279 58.827,-29.795 58.827,-29.795 l -6.112,31.324 z"
         id="path1546"
         style="overflow:visible;fill:#ffffff;fill-opacity:1" /><path
         fill="#ffffff"
         d="m 195.479,102.652 c 0,0 30.56,21.392 35.143,19.1 4.584,-2.292 58.827,-36.671 58.827,-36.671 l -45.839,-33.616 -50.423,38.2 z"
         id="path1548"
         style="overflow:visible;fill:#ffffff;fill-opacity:1" /><path
         fill="#ffffff"
         d="m 22.818,152.312 c 0,0 125.293,-76.398 200.928,-106.958 75.635,-30.56 30.56,29.031 30.56,29.031 0,0 -78.69,38.199 -110.778,57.299 -32.088,19.1 -81.746,50.424 -87.858,51.188 -6.112,0.763 -32.852,-30.56 -32.852,-30.56 z"
         id="path1550"
         style="overflow:visible;fill:#ffffff;fill-opacity:1" /><path
         fill="#ffffff"
         d="m 255.967,27.303 c 0,0 -5.29,-1.851 -14.146,8.46 -8.857,10.312 15.07,8.197 15.07,8.197 z"
         id="path1552"
         style="overflow:visible;fill:#ffffff;fill-opacity:1" /><path
         fill="#ffffff"
         d="m 232.15,28.546 68.74684,32.049047 c 100.35113,46.782633 97.71325,106.754523 97.71325,106.754523 l 0.20656,133.04335 C 401.0727,192.70229 359.8484,159.35354 294.0059,102.28228 266.25779,78.23065 193.186,45.354 193.186,45.354 Z"
         id="path1554"
         sodipodi:nodetypes="csccscc"
         style="overflow:visible;fill:#ffffff;fill-opacity:1" /><path
         fill="#ffffff"
         d="m 255.834,27.782 c 0,0 -2.292,92.442 -4.584,97.026 -2.293,4.584 42.783,-12.987 43.546,-18.335 0.765,-5.349 6.877,-50.423 2.293,-55.007 C 292.505,46.882 260.417,25.49 255.834,27.782 Z M 52.833,134.34 c 0,0 20.641,24.654 33.446,31.918 4.013,-1.912 87.34,-50.839 87.34,-50.839 0,0 -25.801,-22.933 -29.623,-32.107 -7.453,4.205 -91.163,51.028 -91.163,51.028 z"
         id="path1556"
         style="overflow:visible;fill:#ffffff;fill-opacity:1" /><path
         d="m 62.006,129.18 c 0,0 20.641,24.655 33.446,31.917 4.013,-1.911 68.995,-40.707 68.995,-40.707 0,0 -25.801,-22.933 -29.624,-32.108 -7.452,4.205 -72.817,40.898 -72.817,40.898 z"
         id="path1558"
         style="overflow:visible" /></g></g></svg>
