<?xml version="1.0" encoding="UTF-8" standalone="no"?>
<svg
   version="1.1"
   viewBox="0 0 1200 1500"
   fill="none"
   stroke="none"
   stroke-linecap="square"
   stroke-miterlimit="10"
   id="svg3537"
   sodipodi:docname="BACK_OG_2024.svg"
   xml:space="preserve"
   inkscape:version="1.2.2 (b0a8486541, 2022-12-01)"
   width="1200"
   height="1500"
   xmlns:inkscape="http://www.inkscape.org/namespaces/inkscape"
   xmlns:sodipodi="http://sodipodi.sourceforge.net/DTD/sodipodi-0.dtd"
   xmlns:xlink="http://www.w3.org/1999/xlink"
   xmlns="http://www.w3.org/2000/svg"
   xmlns:svg="http://www.w3.org/2000/svg"><defs
     id="defs3541"><linearGradient
       inkscape:collect="always"
       id="linearGradient2008"><stop
         style="stop-color:#2f5596;stop-opacity:1;"
         offset="0.95999998"
         id="stop2004" /><stop
         style="stop-color:#2f5596;stop-opacity:0;"
         offset="1"
         id="stop2006" /></linearGradient><radialGradient
       inkscape:collect="always"
       xlink:href="#linearGradient2008"
       id="radialGradient2010"
       cx="600"
       cy="750"
       fx="600"
       fy="750"
       r="488.17438"
       gradientUnits="userSpaceOnUse" /></defs><sodipodi:namedview
     id="namedview3539"
     pagecolor="#ffffff"
     bordercolor="#000000"
     borderopacity="0.25"
     inkscape:showpageshadow="2"
     inkscape:pageopacity="0.0"
     inkscape:pagecheckerboard="0"
     inkscape:deskcolor="#d1d1d1"
     showgrid="false"
     showguides="true"
     inkscape:zoom="0.36"
     inkscape:cx="626.38889"
     inkscape:cy="766.66667"
     inkscape:window-width="1536"
     inkscape:window-height="779"
     inkscape:window-x="0"
     inkscape:window-y="0"
     inkscape:window-maximized="1"
     inkscape:current-layer="layer4"><sodipodi:guide
       position="0.48479765,780.66338"
       orientation="1,0"
       id="guide13720"
       inkscape:locked="false" /><sodipodi:guide
       position="600,1387.0829"
       orientation="-1,0"
       id="guide1099"
       inkscape:locked="false"
       inkscape:label=""
       inkscape:color="rgb(0,134,229)" /><sodipodi:guide
       position="600,750"
       orientation="0,1"
       id="guide2231"
       inkscape:locked="false"
       inkscape:label=""
       inkscape:color="rgb(0,134,229)" /></sodipodi:namedview><clipPath
     id="p4.0"><path
       d="M 0,0 H 1280 V 720 H 0 Z"
       clip-rule="nonzero"
       id="path3472" /></clipPath><g
     inkscape:groupmode="layer"
     id="layer4"
     inkscape:label="outside"
     style="display:inline"><circle
       style="fill:none;fill-opacity:1;stroke:url(#radialGradient2010);stroke-width:40;stroke-opacity:1;stroke-dasharray:none"
       id="path1097"
       cx="600"
       cy="750"
       r="473.17438" /><text
       xml:space="preserve"
       style="font-size:100px;font-family:Graduate;-inkscape-font-specification:Graduate;text-align:center;text-anchor:middle;fill:#13284b;fill-opacity:1;stroke:#ffce06;stroke-width:10;stroke-dasharray:none;stroke-opacity:0.164706"
       x="600"
       y="1323.1987"
       id="text2229"><tspan
         sodipodi:role="line"
         id="tspan2227"
         x="600"
         y="1323.1987"
         style="font-weight:bold;font-size:100px">Wrestling</tspan><tspan
         sodipodi:role="line"
         x="600"
         y="1448.1987"
         style="font-weight:bold;font-size:100px"
         id="tspan4746">&amp; BJJ</tspan></text><text
       xml:space="preserve"
       style="font-size:133.333px;font-family:Graduate;-inkscape-font-specification:Graduate;text-align:center;text-anchor:middle;fill:#13284b;fill-opacity:1;stroke:#ffce06;stroke-width:10;stroke-dasharray:none;stroke-opacity:0.164706"
       x="600"
       y="207.66058"
       id="text2241"><tspan
         sodipodi:role="line"
         id="tspan2239"
         x="600"
         y="207.66058"
         style="font-size:133.333px">Last Name</tspan></text></g><g
     inkscape:groupmode="layer"
     id="layer3"
     inkscape:label="background"
     style="display:inline"><ellipse
       style="display:inline;fill:none;fill-opacity:1;stroke:#2f5596;stroke-width:20;stroke-dasharray:none;stroke-opacity:1"
       id="path15226"
       cx="596.96222"
       cy="736.48065"
       rx="253.33336"
       ry="253.33334" /><path
       stroke="#2f5496"
       stroke-width="13.3333"
       stroke-miterlimit="800"
       stroke-linecap="butt"
       d="m 746.29551,641.69683 v 192"
       fill-rule="evenodd"
       id="path3487"
       sodipodi:nodetypes="cc"
       style="display:inline" /><path
       stroke="#2f5496"
       stroke-width="13.3333"
       stroke-miterlimit="800"
       stroke-linecap="butt"
       d="m 444.42888,641.69683 v 192"
       fill-rule="evenodd"
       id="path3483"
       style="display:inline" /></g><g
     inkscape:groupmode="layer"
     id="layer1"
     inkscape:label="newspear"
     style="display:inline"><path
       id="path5943"
       style="fill:#13284b;fill-opacity:1;stroke:#ffcd05;stroke-width:5;stroke-dasharray:none;stroke-opacity:1"
       d="m 598.40448,411.38446 -18.02735,85.0957 1.40625,96.00977 -20.19405,0.88281 -8.64802,-30.46093 -43.9548,-61.57227 29.66638,111.25976 41.72399,0.007 8.31666,451.7821 h 16.53516 l 9.32422,-451.78909 h 46.94157 l 28.09553,-110.57422 -41.69335,60.88673 -10.94727,31.39567 -22,-0.93475 2,-96.89258 z"
       sodipodi:nodetypes="cccccccccccccccccc" /></g><g
     inkscape:groupmode="layer"
     id="layer2"
     inkscape:label="belt"
     style="display:inline"><g
       stroke="#1a1a1a"
       stroke-width="4"
       id="g15715"
       transform="matrix(-0.03291479,-0.62226956,0.70991584,-0.02885113,545.59509,842.00797)"
       style="overflow:visible;fill:#000000;fill-opacity:1;stroke:#c0c0c0;stroke-opacity:1"><path
         fill="#ffffff"
         d="m 192.044,46.054 c 0,0 -1.475,4.952 0.21,7.375 1.686,2.423 24.86,1.791 24.86,1.791 L 205.845,45 Z"
         id="path15697"
         style="fill:#000000;fill-opacity:1;stroke:#c0c0c0;stroke-opacity:1" /><path
         fill="#ffffff"
         d="m 252.014,126.336 c 0,0 -22.156,-6.112 -28.268,-21.392 -6.111,-15.279 58.827,-29.795 58.827,-29.795 l -6.112,31.324 z"
         id="path15701"
         style="fill:#000000;fill-opacity:1;stroke:#c0c0c0;stroke-opacity:1" /><path
         fill="#ffffff"
         d="m 195.479,102.652 c 0,0 30.56,21.392 35.143,19.1 4.584,-2.292 58.827,-36.671 58.827,-36.671 l -45.839,-33.616 -50.423,38.2 z"
         id="path15703"
         style="fill:#000000;fill-opacity:1;stroke:#c0c0c0;stroke-opacity:1" /><path
         fill="#ffffff"
         d="m 22.818,152.312 c 0,0 125.293,-76.398 200.928,-106.958 75.635,-30.56 30.56,29.031 30.56,29.031 0,0 -78.69,38.199 -110.778,57.299 -32.088,19.1 -81.746,50.424 -87.858,51.188 -6.112,0.763 -32.852,-30.56 -32.852,-30.56 z"
         id="path15705"
         style="fill:#000000;fill-opacity:1;stroke:#c0c0c0;stroke-opacity:1" /><path
         fill="#ffffff"
         d="m 255.967,27.303 c 0,0 -5.29,-1.851 -14.146,8.46 -8.857,10.312 15.07,8.197 15.07,8.197 z"
         id="path15707"
         style="fill:#000000;fill-opacity:1;stroke:#c0c0c0;stroke-opacity:1" /><path
         fill="#ffffff"
         d="m 232.15,28.546 c 0,0 40.00646,4.347312 50.2085,19.056794 8.57121,12.358117 13.08202,37.332594 0.2145,45.118206 -28.85052,17.45628 -89.387,-47.367 -89.387,-47.367 z"
         id="path15709"
         sodipodi:nodetypes="caacc"
         style="fill:#000000;fill-opacity:1;stroke:#c0c0c0;stroke-opacity:1" /><path
         fill="#ffffff"
         d="m 255.834,27.782 c 0,0 -2.292,92.442 -4.584,97.026 -2.293,4.584 42.783,-12.987 43.546,-18.335 0.765,-5.349 6.877,-50.423 2.293,-55.007 C 292.505,46.882 260.417,25.49 255.834,27.782 Z M 52.833,134.34 c 0,0 12.771958,15.25507 24.4552,25.30103 3.169273,2.72514 6.258432,5.06696 8.9908,6.61697 4.013,-1.912 87.34,-50.839 87.34,-50.839 0,0 -25.801,-22.933 -29.623,-32.107 -7.453,4.205 -91.163,51.028 -91.163,51.028 z"
         id="path15711"
         style="fill:#000000;fill-opacity:1;stroke:#c0c0c0;stroke-opacity:1"
         sodipodi:nodetypes="cccsccscccc" /><path
         d="m 62.006,129.18 c 0,0 6.60527,7.88978 14.660747,16.05758 6.184567,6.2708 13.223937,12.70547 18.785253,15.85942 4.013,-1.911 68.995,-40.707 68.995,-40.707 0,0 -25.801,-22.933 -29.624,-32.108 -7.452,4.205 -72.817,40.898 -72.817,40.898 z"
         id="path15713"
         style="fill:#c0c0c0;fill-opacity:1;stroke:#c0c0c0;stroke-opacity:1"
         sodipodi:nodetypes="cscccc" /></g><path
       stroke="#c5c5c5"
       stroke-width="4"
       stroke-miterlimit="800"
       stroke-linecap="butt"
       d="m 612.61066,932.80478 -1.81113,-51.82782 c 19.60389,32.69305 36.38907,85.83453 38.57425,135.12374 l -16.08624,21.955 c -0.59625,-13.6674 -8.11859,-78.38416 -20.67688,-105.25092 z"
       fill-rule="evenodd"
       id="path3491"
       style="display:inline;fill:#000000;fill-opacity:1"
       inkscape:label="low_belt" /></g></svg>
